:FULLY-SPECIFIED
:FORCE-ALL-JOINTS-BE-3DOF
:DEGREES
275
root 9.97355 16.8782 1.74159 5.75099 -4.13408 2.00539
lfemur -17.3822 6.43502 -28.5557
ltibia 29.6 -0 0
lfoot -17.5033 6.66527 0.00191328
ltoes -0.997956 0 0
rfemur -25.688 -1.77218 17.6626
rtibia 64.1274 -0 0
rfoot -17.4879 -11.5798 0.00648167
rtoes -17.2608 0 0
lowerback -5.08323 -1.4551 -2.89612
upperback -0.404482 -1.83072 2.08139
thorax 2.59282 -0.957517 3.64224
lowerneck -22.1247 -3.72717 -11.2765
upperneck 21.727 -4.36379 11.315
head 11.2217 -1.53114 5.37646
lclavicle 1.15792e-14 -2.19988e-14 0
lhumerus -21.6033 -14.1414 87.3044
lradius 24.0007 -0 0
lwrist 0.346087 0 0
lhand -12.6021 -24.2356 -0.000931493
lfingers 7.12502 0 0
lthumb 13.4768 5.30967 -0.000649194
rclavicle 1.15792e-14 -2.19988e-14 0
rhumerus -45.5264 8.22038 -83.0611
rradius 42.4957 -0 0
rwrist -23.4621 0 0
rhand -29.3566 -22.4479 -0.000426678
rfingers 7.12502 0 0
rthumb -2.6961 -52.411 -0.00038471
276
root 9.98365 16.8686 1.86508 5.67876 -3.73838 2.04745
lfemur -16.7829 6.23818 -28.5937
ltibia 29.5336 -0 0
lfoot -17.7587 6.50129 0.000849569
ltoes -1.03308 0 0
rfemur -26.7105 -1.82555 17.7511
rtibia 63.3616 -0 0
rfoot -18.1244 -11.75 0.00336789
rtoes -17.8929 0 0
lowerback -5.06581 -1.6418 -2.96669
upperback -0.37072 -2.07724 2.11692
thorax 2.64299 -1.08304 3.69948
lowerneck -22.1265 -3.69788 -11.1942
upperneck 21.8515 -4.32748 11.1931
head 11.2581 -1.52328 5.32636
lclavicle 1.20761e-14 -1.93484e-14 0
lhumerus -20.7044 -14.0912 87.0682
lradius 24.0172 -0 0
lwrist 0.189761 0 0
lhand -12.6302 -24.2293 -0.000719323
lfingers 7.12502 0 0
lthumb 13.4498 5.31743 -0.000505043
rclavicle 1.20761e-14 -1.93484e-14 0
rhumerus -45.5892 8.32224 -83.0764
rradius 42.5375 -0 0
rwrist -23.6553 0 0
rhand -29.4517 -22.5913 0.000167613
rfingers 7.12502 0 0
rthumb -2.78791 -52.5529 0.000170233
277
root 9.99374 16.859 1.98856 5.63214 -3.32586 2.09763
lfemur -16.1414 6.0291 -28.6385
ltibia 29.3452 0 0
lfoot -17.9866 6.35771 0
ltoes -1.08821 0 0
rfemur -27.7079 -1.84321 17.7999
rtibia 62.4978 0 0
rfoot -18.777 -11.8669 0
rtoes -18.2057 0 0
lowerback -5.05864 -1.83017 -3.04716
upperback -0.344233 -2.32516 2.14928
thorax 2.69295 -1.20926 3.7585
lowerneck -22.1094 -3.66855 -11.1574
upperneck 21.9487 -4.29038 11.128
head 11.2832 -1.51244 5.30481
lclavicle 1.25731e-14 -1.66979e-14 0
lhumerus -19.8435 -14.1118 86.8702
lradius 24.0579 0 0
lwrist 0.106751 0 0
lhand -12.7714 -24.2512 0
lfingers 7.12502 0 0
lthumb 13.3136 5.30356 0
rclavicle 1.25731e-14 -1.66979e-14 0
rhumerus -45.6624 8.38572 -83.0708
rradius 42.5509 0 0
rwrist -23.7724 0 0
rhand -29.485 -22.7689 0
rfingers 7.12502 0 0
rthumb -2.82009 -52.73 0
278
root 9.99972 16.8596 2.11115 5.62916 -2.86771 2.1532
lfemur -15.4933 5.78365 -28.6887
ltibia 29.0601 -0 0
lfoot -18.1823 6.23385 -0.000375825
ltoes -1.14529 0 0
rfemur -28.7066 -1.84138 17.8124
rtibia 61.5242 -0 0
rfoot -19.4745 -11.9228 -0.00240441
rtoes -18.0277 0 0
lowerback -5.06407 -2.03036 -3.13918
upperback -0.33205 -2.58799 2.18251
thorax 2.73845 -1.34278 3.82329
lowerneck -22.0602 -3.63672 -11.1813
upperneck 22.0022 -4.24912 11.1387
head 11.2886 -1.49629 5.3216
lclavicle 1.34842e-14 -9.14408e-15 0
lhumerus -19.0141 -14.172 86.7063
lradius 24.1149 -0 0
lwrist 0.0649347 0 0
lhand -13.0688 -24.3154 0.00130125
lfingers 7.12502 0 0
lthumb 13.0269 5.2563 0.000950905
rclavicle 1.34842e-14 -9.14408e-15 0
rhumerus -45.746 8.40975 -83.0387
rradius 42.5327 -0 0
rwrist -23.7893 0 0
rhand -29.434 -23.0576 -0.000587573
rfingers 7.12502 0 0
rthumb -2.77081 -53.0194 -0.000566422
279
root 10.0057 16.8601 2.23374 5.67083 -2.35531 2.21015
lfemur -14.8722 5.50045 -28.7401
ltibia 28.7334 -0 0
lfoot -18.3477 6.11404 -0.000491655
ltoes -1.19629 0 0
rfemur -29.7183 -1.83993 17.801
rtibia 60.4379 -0 0
rfoot -20.1805 -11.9397 -0.00342834
rtoes -17.4425 0 0
lowerback -5.08011 -2.24497 -3.24124
upperback -0.33744 -2.8693 2.21905
thorax 2.7753 -1.48526 3.89514
lowerneck -21.9771 -3.604 -11.2543
upperneck 22.014 -4.2062 11.209
head 11.2745 -1.47699 5.36821
lclavicle 1.43953e-14 -1.59027e-15 0
lhumerus -18.2097 -14.2329 86.5651
lradius 24.1782 -0 0
lwrist 0.0283431 0 0
lhand -13.4958 -24.4155 0.00261254
lfingers 7.12502 0 0
lthumb 12.6151 5.18062 0.00193317
rclavicle 1.43953e-14 -1.59027e-15 0
rhumerus -45.8414 8.41254 -82.9925
rradius 42.4848 -0 0
rwrist -23.7246 0 0
rhand -29.33 -23.4782 -0.000684158
rfingers 7.12502 0 0
rthumb -2.67038 -53.4413 -0.000655075
280
root 10.0117 16.8607 2.35634 5.73505 -1.82256 2.27149
lfemur -14.2421 5.20948 -28.7941
ltibia 28.3475 -0 0
lfoot -18.4892 5.99522 -0.00039797
ltoes -1.26178 0 0
rfemur -30.7127 -1.82537 17.7632
rtibia 59.2532 -0 0
rfoot -20.8499 -11.9326 -0.00310619
rtoes -16.6852 0 0
lowerback -5.10321 -2.46198 -3.35079
upperback -0.352413 -3.1531 2.25458
thorax 2.80774 -1.62889 3.9694
lowerneck -21.8759 -3.57377 -11.3543
upperneck 22.0054 -4.16666 11.3111
head 11.2512 -1.458 5.43029
lclavicle 1.53064e-14 5.96355e-15 0
lhumerus -17.4358 -14.3253 86.4467
lradius 24.2554 -0 0
lwrist 0.0281371 0 0
lhand -13.992 -24.532 0.00316967
lfingers 7.12502 0 0
lthumb 12.1366 5.09247 0.00235783
rclavicle 1.53064e-14 5.96355e-15 0
rhumerus -45.9486 8.40004 -82.9423
rradius 42.4118 -0 0
rwrist -23.6129 0 0
rhand -29.2091 -23.9399 9.68488e-05
rfingers 7.12502 0 0
rthumb -2.55368 -53.9046 0.000106554
281
root 10.0176 16.8613 2.47893 5.79968 -1.30331 2.33977
lfemur -13.5669 4.94086 -28.8522
ltibia 27.885 -0 0
lfoot -18.6131 5.87431 -0.000189488
ltoes -1.3623 0 0
rfemur -31.6594 -1.78424 17.6961
rtibia 57.9841 -0 0
rfoot -21.4379 -11.9163 -0.00185788
rtoes -15.9911 0 0
lowerback -5.12989 -2.66937 -3.46533
upperback -0.368918 -3.42339 2.28468
thorax 2.84005 -1.76584 4.0414
lowerneck -21.7725 -3.54951 -11.4593
upperneck 21.9976 -4.13555 11.4172
head 11.2293 -1.44281 5.49348
lclavicle 1.62175e-14 1.35174e-14 0
lhumerus -16.6977 -14.4797 86.3501
lradius 24.354 -0 0
lwrist 0.0954777 0 0
lhand -14.4971 -24.6454 0.00266989
lfingers 7.12502 0 0
lthumb 11.6496 5.00778 0.00199015
rclavicle 1.62175e-14 1.35174e-14 0
rhumerus -46.0679 8.37817 -82.8981
rradius 42.3181 -0 0
rwrist -23.489 0 0
rhand -29.1076 -24.3521 0.00132332
rfingers 7.12502 0 0
rthumb -2.45561 -54.3181 0.00129713
282
root 10.0236 16.8618 2.60152 5.84259 -0.831385 2.41711
lfemur -12.8105 4.72477 -28.9152
ltibia 27.3281 -0 0
lfoot -18.7257 5.74826 9.83302e-08
ltoes -1.51841 0 0
rfemur -32.5283 -1.70305 17.5963
rtibia 56.645 -0 0
rfoot -21.8995 -11.9059 -0.000476704
rtoes -15.5953 0 0
lowerback -5.15674 -2.85509 -3.5824
upperback -0.378838 -3.66422 2.30486
thorax 2.87656 -1.8883 4.10649
lowerneck -21.6828 -3.53483 -11.5473
upperneck 22.012 -4.11799 11.4997
head 11.2193 -1.43493 5.54343
lclavicle 1.71286e-14 2.10712e-14 0
lhumerus -16.0006 -14.7271 86.2737
lradius 24.4816 -0 0
lwrist 0.261526 0 0
lhand -14.9506 -24.7364 0.00137343
lfingers 7.12502 0 0
lthumb 11.2123 4.94248 0.00102498
rclavicle 1.71286e-14 2.10712e-14 0
rhumerus -46.1994 8.35281 -82.8698
rradius 42.2082 -0 0
rwrist -23.3873 0 0
rhand -29.0614 -24.6239 0.00176733
rfingers 7.12502 0 0
rthumb -2.41102 -54.5904 0.00172386
283
root 10.0296 16.8624 2.72411 5.84157 -0.440546 2.50522
lfemur -11.937 4.59152 -28.9832
ltibia 26.6593 0 0
lfoot -18.8332 5.614 0
ltoes -1.75068 0 0
rfemur -33.289 -1.56819 17.4603
rtibia 55.2499 0 0
rfoot -22.1898 -11.9163 0
rtoes -15.733 0 0
lowerback -5.1804 -3.00708 -3.69954
upperback -0.374019 -3.85961 2.31056
thorax 2.92164 -1.98845 4.15996
lowerneck -21.6225 -3.53344 -11.5965
upperneck 22.0695 -4.11913 11.5309
head 11.2314 -1.4379 5.5658
lclavicle 1.80397e-14 2.8625e-14 0
lhumerus -15.3492 -15.098 86.2153
lradius 24.6456 0 0
lwrist 0.557442 0 0
lhand -15.2922 -24.7855 0
lfingers 7.12502 0 0
lthumb 10.8829 4.9125 0
rclavicle 1.80397e-14 2.8625e-14 0
rhumerus -46.3432 8.3298 -82.8676
rradius 42.0867 0 0
rwrist -23.3426 0 0
rhand -29.1067 -24.6648 0
rfingers 7.12502 0 0
rthumb -2.45477 -54.6305 0
284
root 10.0354 16.8648 2.86409 5.77214 -0.159412 2.6125
lfemur -10.9056 4.57077 -29.0652
ltibia 25.8639 -0 0
lfoot -18.9572 5.47764 0.000381046
ltoes -2.14405 0 0
rfemur -33.9159 -1.37788 17.2854
rtibia 53.7785 -0 0
rfoot -22.2419 -11.9802 -0.000546134
rtoes -16.6199 0 0
lowerback -5.18611 -3.11669 -3.82203
upperback -0.350683 -3.99803 2.29595
thorax 2.96976 -2.06054 4.20068
lowerneck -21.5925 -3.54545 -11.5987
upperneck 22.1872 -4.13868 11.4949
head 11.2716 -1.45292 5.55385
lclavicle 1.7667e-14 2.45168e-14 0
lhumerus -14.7497 -15.5997 86.1736
lradius 24.8404 -0 0
lwrist 0.982434 0 0
lhand -15.5231 -24.8099 -0.000879206
lfingers 7.12502 0 0
lthumb 10.6603 4.9006 -0.00067165
rclavicle 1.7667e-14 2.45168e-14 0
rhumerus -46.5103 8.30803 -82.8975
rradius 41.9509 -0 0
rwrist -23.3725 0 0
rhand -29.2729 -24.2965 -0.00614065
rfingers 7.12502 0 0
rthumb -2.61523 -54.2597 -0.00596117
